:SAMPLES-PER-SECOND 24
:FULLY-SPECIFIED
:DEGREES
94
root  -0.285384 39.2252 27.0887 1.97049 -78.8698 3.84355
RightUpLeg  -7.63542 6.07913 -4.84014
RightLeg  19.4112 -7.01189 -2.94419
RightFoot  -18.1569 0.056134 3.00735
RightToes  -2.08645e-008 3.77894e-005 6.81332e-007
Spine  -0.818439 1.50953 4.38527
Spine1  9.51678 2.8262 -5.916
HEad  -32.562 44.1586 -20.6613
LeftShoulder1  8.03423 -13.7228 -40.4118
LeftArm  -0.91261 19.7133 -28.5612
LeftForeArm  148.064 -73.5209 -143.942
LeftHand  -0.503571 -1.59157 8.5459
RightShoulder  4.18843 6.8603 34.5188
RightArm  15.7166 -22.0435 28.5552
RightForeArm  104.65 80.4547 92.5555
RightHand  -0.66696 7.26196 -6.46103
LeftUpLeg  -24.2884 6.75971 7.34217
LeftLeg  44.9257 7.74341 8.60769
LeftFoot  -6.45938 0.311631 -6.39995
LeftToes  1.24767e-006 1.47042e-008 1.32732e-009
95
root  -0.48117 39.2214 27.6833 -5.05927 -85.1751 11.1977
RightUpLeg  -8.61973 9.74759 -6.23301
RightLeg  18.7281 -5.19021 -2.16563
RightFoot  -17.4053 0.0717628 3.5777
RightToes  -2.08645e-008 3.77894e-005 6.81332e-007
Spine  -0.372299 1.18468 4.42562
Spine1  9.16557 2.40529 -5.45047
HEad  -31.9619 40.7925 -18.4334
LeftShoulder1  7.9274 -13.6675 -39.9655
LeftArm  2.98999 18.3025 -28.4478
LeftForeArm  150.07 -73.1904 -145.001
LeftHand  -0.467319 -1.75586 7.77222
RightShoulder  4.22641 6.92345 34.6366
RightArm  17.2884 -19.3547 28.5965
RightForeArm  99.8301 80.4564 87.7024
RightHand  -0.630072 7.12103 -6.18894
LeftUpLeg  -24.761 0.624364 8.89321
LeftLeg  42.5659 5.42105 5.72516
LeftFoot  -10.2808 0.132993 -7.79194
LeftToes  1.24767e-006 1.47042e-008 1.32732e-009
96
root  -0.743837 39.0849 28.4417 169.182 -86.6804 -162.579
RightUpLeg  -10.713 14.7311 -7.98606
RightLeg  19.1017 -2.00862 -0.982157
RightFoot  -17.6817 0.166295 5.14797
RightToes  -2.08645e-008 3.77894e-005 6.81332e-007
Spine  -0.235713 1.3823 4.70163
Spine1  9.26575 2.51967 -4.97652
HEad  -29.5554 31.6025 -13.4488
LeftShoulder1  7.96271 -13.741 -39.9724
LeftArm  7.83161 16.604 -27.2708
LeftForeArm  151.223 -72.9627 -145.664
LeftHand  -0.455084 -2.14132 7.21871
RightShoulder  4.22682 6.93316 34.603
RightArm  18.4893 -16.223 29.1641
RightForeArm  93.916 80.3568 82.1463
RightHand  -0.783879 7.10454 -7.60322
LeftUpLeg  -24.2516 -9.91647 12.0442
LeftLeg  38.9992 1.98871 2.12346
LeftFoot  -14.0138 -0.113441 -8.58587
LeftToes  1.24767e-006 1.47042e-008 1.32732e-009
97
root  -1.11446 38.8441 29.4179 -176.167 -76.8213 -177.105
RightUpLeg  -13.8207 19.6826 -10.6809
RightLeg  20.2021 3.85677 1.36749
RightFoot  -17.7827 0.251686 6.60229
RightToes  -2.08645e-008 3.77894e-005 6.81332e-007
Spine  0.693858 1.35267 4.86355
Spine1  9.02128 2.51756 -4.83384
HEad  -26.9103 18.083 -7.45963
LeftShoulder1  7.8715 -13.6734 -39.641
LeftArm  12.0044 16.4871 -26.2326
LeftForeArm  153.503 -72.2726 -147.377
LeftHand  -0.410102 -2.59165 6.18472
RightShoulder  4.24723 6.94029 34.769
RightArm  19.3577 -13.0317 30.9567
RightForeArm  87.6464 80.1494 76.1032
RightHand  -0.751995 7.48055 -7.12361
LeftUpLeg  -22.7577 -22.9774 15.2763
LeftLeg  36.4331 -2.61225 -1.68093
LeftFoot  -19.6981 -0.493655 -8.38688
LeftToes  1.24767e-006 1.47042e-008 1.32732e-009
98
root  -1.58599 38.5339 30.502 -177.418 -65.159 -175.504
RightUpLeg  -18.3325 24.2712 -13.569
RightLeg  21.0888 8.93764 3.57999
RightFoot  -17.0412 0.313638 8.61129
RightToes  -2.08645e-008 3.77894e-005 6.81332e-007
Spine  1.60375 1.5051 3.0826
Spine1  8.70167 2.14442 -2.2451
HEad  -25.2092 2.65631 -1.48949
LeftShoulder1  7.89495 -13.7093 -39.6796
LeftArm  14.7648 17.9976 -25.5194
LeftForeArm  154.863 -71.7541 -148.529
LeftHand  -0.363381 -2.59963 5.49891
RightShoulder  4.26174 6.92537 34.9639
RightArm  19.2932 -11.308 33.5725
RightForeArm  85.0004 80.0266 73.1435
RightHand  -0.790881 7.12076 -7.67065
LeftUpLeg  -21.0306 -33.2 17.1815
LeftLeg  36.9047 -9.12876 -6.92935
LeftFoot  -24.5503 -0.914482 -9.15383
LeftToes  1.24767e-006 1.47042e-008 1.32732e-009
99
root  -2.10251 38.2031 31.7911 -177.542 -52.6666 -174.493
RightUpLeg  -23.8834 29.4463 -17.1726
RightLeg  20.9113 14.1894 5.72069
RightFoot  -16.2634 0.364452 10.989
RightToes  -2.08645e-008 3.77894e-005 6.81332e-007
Spine  1.9047 1.13674 1.15616
Spine1  9.34492 1.24711 0.278946
HEad  -25.4485 -12.5121 4.64143
LeftShoulder1  7.78693 -13.653 -39.2232
LeftArm  15.9561 19.3175 -26.2957
LeftForeArm  153.107 -72.6331 -146.617
LeftHand  -0.395189 -2.95788 5.72511
RightShoulder  4.36172 7.01142 35.5694
RightArm  19.1704 -10.576 35.4668
RightForeArm  88.4855 80.187 76.2967
RightHand  -0.722516 7.58765 -6.80869
LeftUpLeg  -18.6893 -38.3963 16.4543
LeftLeg  39.0279 -14.1941 -11.6718
LeftFoot  -25.8566 -0.84345 -7.82105
LeftToes  1.24767e-006 1.47042e-008 1.32732e-009
100
root  -2.63736 37.8828 33.2915 -177.28 -38.8687 -173.553
RightUpLeg  -30.9813 35.571 -21.7683
RightLeg  18.7435 20.9722 7.38904
RightFoot  -13.3046 0.138893 13.3307
RightToes  -2.08645e-008 3.77894e-005 6.81332e-007
Spine  3.35433 0.582893 -1.74954
Spine1  9.39752 0.0951362 2.91183
HEad  -26.7604 -25.4309 10.1625
LeftShoulder1  7.70627 -13.6365 -38.8165
LeftArm  15.2796 19.9117 -28.5078
LeftForeArm  148.327 -74.6126 -141.372
LeftHand  -0.481632 -2.88313 6.99785
RightShoulder  4.41311 7.05486 35.88
RightArm  19.7915 -9.35184 35.6276
RightForeArm  93.2782 80.3298 82.1026
RightHand  -0.816137 7.66939 -7.58551
LeftUpLeg  -14.2662 -35.9465 12.7799
LeftLeg  38.6123 -13.3505 -10.8442
LeftFoot  -27.0329 -0.147467 -2.30743
LeftToes  1.24767e-006 1.47042e-008 1.32732e-009
101
root  -3.17554 37.6404 34.9647 -176.48 -25.708 -172.896
RightUpLeg  -33.9639 31.7228 -18.9506
RightLeg  14.6076 26.613 5.00181
RightFoot  -6.1208 -0.864454 17.1974
RightToes  -2.08645e-008 3.77894e-005 6.81332e-007
Spine  6.08216 -0.184432 -7.55804
Spine1  8.85688 -2.17642 8.33305
HEad  -28.8643 -35.0055 14.4965
LeftShoulder1  7.91576 -13.8536 -39.4299
LeftArm  12.6643 18.5635 -29.7562
LeftForeArm  140.341 -76.5108 -134.078
LeftHand  -0.555574 -1.95687 8.98151
RightShoulder  4.31132 6.96298 35.2852
RightArm  20.0119 -6.00782 35.4015
RightForeArm  90.0105 80.2245 79.7811
RightHand  -1.0017 7.19164 -9.56456
LeftUpLeg  -11.2936 -27.515 8.87903
LeftLeg  36.2072 -7.44261 -5.4643
LeftFoot  -29.4095 0.642047 2.89447
LeftToes  1.24767e-006 1.47042e-008 1.32732e-009
102
root  -3.7618 37.626 36.8102 -174.908 -14.9999 -172.958
RightUpLeg  -34.1124 21.4827 -11.034
RightLeg  12.5858 15.728 1.15853
RightFoot  1.14618 -1.55638 14.2302
RightToes  -2.08645e-008 3.77894e-005 6.81332e-007
Spine  9.81396 -0.716789 -14.4073
Spine1  8.42191 -5.27706 15.4919
HEad  -32.5538 -42.214 18.5979
LeftShoulder1  8.21349 -14.1327 -40.3451
LeftArm  10.4786 13.5103 -27.4887
LeftForeArm  127.077 -78.4871 -121.695
LeftHand  -0.625007 -1.98676 10.0252
RightShoulder  4.25904 6.90133 35.0315
RightArm  18.8681 -2.30438 35.6571
RightForeArm  79.9685 79.7364 69.0219
RightHand  -0.868956 7.51157 -8.15435
LeftUpLeg  -12.4482 -21.2658 5.61924
LeftLeg  35.2885 -0.378121 0.0882979
LeftFoot  -29.0203 0.816078 4.12093
LeftToes  1.24767e-006 1.47042e-008 1.32732e-009
